<?xml version="1.0" encoding="utf-8"?>
<svg xmlns="http://www.w3.org/2000/svg" xmlns:xlink="http://www.w3.org/1999/xlink" style="margin: auto; background: none; display: block; shape-rendering: auto;" width="200px" height="200px" viewBox="0 0 100 100" preserveAspectRatio="xMidYMid">
<g transform="rotate(0 50 50)">
  <rect x="47" y="24" rx="3" ry="6" width="6" height="12" fill="#ffffff">
    <animate attributeName="opacity" values="1;0" keyTimes="0;1" dur="7.142857142857142s" begin="-6.547619047619047s" repeatCount="indefinite"></animate>
  </rect>
</g><g transform="rotate(30 50 50)">
  <rect x="47" y="24" rx="3" ry="6" width="6" height="12" fill="#ffffff">
    <animate attributeName="opacity" values="1;0" keyTimes="0;1" dur="7.142857142857142s" begin="-5.952380952380952s" repeatCount="indefinite"></animate>
  </rect>
</g><g transform="rotate(60 50 50)">
  <rect x="47" y="24" rx="3" ry="6" width="6" height="12" fill="#ffffff">
    <animate attributeName="opacity" values="1;0" keyTimes="0;1" dur="7.142857142857142s" begin="-5.357142857142857s" repeatCount="indefinite"></animate>
  </rect>
</g><g transform="rotate(90 50 50)">
  <rect x="47" y="24" rx="3" ry="6" width="6" height="12" fill="#ffffff">
    <animate attributeName="opacity" values="1;0" keyTimes="0;1" dur="7.142857142857142s" begin="-4.761904761904762s" repeatCount="indefinite"></animate>
  </rect>
</g><g transform="rotate(120 50 50)">
  <rect x="47" y="24" rx="3" ry="6" width="6" height="12" fill="#ffffff">
    <animate attributeName="opacity" values="1;0" keyTimes="0;1" dur="7.142857142857142s" begin="-4.166666666666666s" repeatCount="indefinite"></animate>
  </rect>
</g><g transform="rotate(150 50 50)">
  <rect x="47" y="24" rx="3" ry="6" width="6" height="12" fill="#ffffff">
    <animate attributeName="opacity" values="1;0" keyTimes="0;1" dur="7.142857142857142s" begin="-3.571428571428571s" repeatCount="indefinite"></animate>
  </rect>
</g><g transform="rotate(180 50 50)">
  <rect x="47" y="24" rx="3" ry="6" width="6" height="12" fill="#ffffff">
    <animate attributeName="opacity" values="1;0" keyTimes="0;1" dur="7.142857142857142s" begin="-2.976190476190476s" repeatCount="indefinite"></animate>
  </rect>
</g><g transform="rotate(210 50 50)">
  <rect x="47" y="24" rx="3" ry="6" width="6" height="12" fill="#ffffff">
    <animate attributeName="opacity" values="1;0" keyTimes="0;1" dur="7.142857142857142s" begin="-2.380952380952381s" repeatCount="indefinite"></animate>
  </rect>
</g><g transform="rotate(240 50 50)">
  <rect x="47" y="24" rx="3" ry="6" width="6" height="12" fill="#ffffff">
    <animate attributeName="opacity" values="1;0" keyTimes="0;1" dur="7.142857142857142s" begin="-1.7857142857142856s" repeatCount="indefinite"></animate>
  </rect>
</g><g transform="rotate(270 50 50)">
  <rect x="47" y="24" rx="3" ry="6" width="6" height="12" fill="#ffffff">
    <animate attributeName="opacity" values="1;0" keyTimes="0;1" dur="7.142857142857142s" begin="-1.1904761904761905s" repeatCount="indefinite"></animate>
  </rect>
</g><g transform="rotate(300 50 50)">
  <rect x="47" y="24" rx="3" ry="6" width="6" height="12" fill="#ffffff">
    <animate attributeName="opacity" values="1;0" keyTimes="0;1" dur="7.142857142857142s" begin="-0.5952380952380952s" repeatCount="indefinite"></animate>
  </rect>
</g><g transform="rotate(330 50 50)">
  <rect x="47" y="24" rx="3" ry="6" width="6" height="12" fill="#ffffff">
    <animate attributeName="opacity" values="1;0" keyTimes="0;1" dur="7.142857142857142s" begin="0s" repeatCount="indefinite"></animate>
  </rect>
</g>
<!-- [ldio] generated by https://loading.io/ --></svg>