<?xml version="1.0" encoding="utf-8"?>
<svg xmlns="http://www.w3.org/2000/svg" xmlns:xlink="http://www.w3.org/1999/xlink" style="margin: auto; background: none; display: block; shape-rendering: auto;" width="200px" height="200px" viewBox="0 0 100 100" preserveAspectRatio="xMidYMid">
<g transform="rotate(0 50 50)">
  <rect x="47" y="24" rx="3" ry="6" width="6" height="12" fill="#e50914">
    <animate attributeName="opacity" values="1;0" keyTimes="0;1" dur="7.692307692307692s" begin="-7.051282051282051s" repeatCount="indefinite"></animate>
  </rect>
</g><g transform="rotate(30 50 50)">
  <rect x="47" y="24" rx="3" ry="6" width="6" height="12" fill="#e50914">
    <animate attributeName="opacity" values="1;0" keyTimes="0;1" dur="7.692307692307692s" begin="-6.41025641025641s" repeatCount="indefinite"></animate>
  </rect>
</g><g transform="rotate(60 50 50)">
  <rect x="47" y="24" rx="3" ry="6" width="6" height="12" fill="#e50914">
    <animate attributeName="opacity" values="1;0" keyTimes="0;1" dur="7.692307692307692s" begin="-5.769230769230769s" repeatCount="indefinite"></animate>
  </rect>
</g><g transform="rotate(90 50 50)">
  <rect x="47" y="24" rx="3" ry="6" width="6" height="12" fill="#e50914">
    <animate attributeName="opacity" values="1;0" keyTimes="0;1" dur="7.692307692307692s" begin="-5.128205128205128s" repeatCount="indefinite"></animate>
  </rect>
</g><g transform="rotate(120 50 50)">
  <rect x="47" y="24" rx="3" ry="6" width="6" height="12" fill="#e50914">
    <animate attributeName="opacity" values="1;0" keyTimes="0;1" dur="7.692307692307692s" begin="-4.487179487179487s" repeatCount="indefinite"></animate>
  </rect>
</g><g transform="rotate(150 50 50)">
  <rect x="47" y="24" rx="3" ry="6" width="6" height="12" fill="#e50914">
    <animate attributeName="opacity" values="1;0" keyTimes="0;1" dur="7.692307692307692s" begin="-3.846153846153846s" repeatCount="indefinite"></animate>
  </rect>
</g><g transform="rotate(180 50 50)">
  <rect x="47" y="24" rx="3" ry="6" width="6" height="12" fill="#e50914">
    <animate attributeName="opacity" values="1;0" keyTimes="0;1" dur="7.692307692307692s" begin="-3.205128205128205s" repeatCount="indefinite"></animate>
  </rect>
</g><g transform="rotate(210 50 50)">
  <rect x="47" y="24" rx="3" ry="6" width="6" height="12" fill="#e50914">
    <animate attributeName="opacity" values="1;0" keyTimes="0;1" dur="7.692307692307692s" begin="-2.564102564102564s" repeatCount="indefinite"></animate>
  </rect>
</g><g transform="rotate(240 50 50)">
  <rect x="47" y="24" rx="3" ry="6" width="6" height="12" fill="#e50914">
    <animate attributeName="opacity" values="1;0" keyTimes="0;1" dur="7.692307692307692s" begin="-1.923076923076923s" repeatCount="indefinite"></animate>
  </rect>
</g><g transform="rotate(270 50 50)">
  <rect x="47" y="24" rx="3" ry="6" width="6" height="12" fill="#e50914">
    <animate attributeName="opacity" values="1;0" keyTimes="0;1" dur="7.692307692307692s" begin="-1.282051282051282s" repeatCount="indefinite"></animate>
  </rect>
</g><g transform="rotate(300 50 50)">
  <rect x="47" y="24" rx="3" ry="6" width="6" height="12" fill="#e50914">
    <animate attributeName="opacity" values="1;0" keyTimes="0;1" dur="7.692307692307692s" begin="-0.641025641025641s" repeatCount="indefinite"></animate>
  </rect>
</g><g transform="rotate(330 50 50)">
  <rect x="47" y="24" rx="3" ry="6" width="6" height="12" fill="#e50914">
    <animate attributeName="opacity" values="1;0" keyTimes="0;1" dur="7.692307692307692s" begin="0s" repeatCount="indefinite"></animate>
  </rect>
</g>
<!-- [ldio] generated by https://loading.io/ --></svg>